# xmcd
#
# Track frame offsets:
#	150
#	13991
#	28974
#	45418
#	66059
#	81297
#	93773
#	108184
#	125399
#	141805
#	157611
#	176647
#	192271
#	204513
#	216787
#	231698
#	245814
#	258371
#	274829
#
# Disc length: 3853 seconds
#
# Revision: 1
# Processed by: cddbd v1.4PL0 Copyright (c) Steve Scherf et al.
# Submitted via: audiograbber 1.80
#
DISCID=0e0f0b13
DTITLE=Various Artist - Hott Country 008
DYEAR=1900
DGENRE=
TTITLE0=Mark Willis - Jacob's Ladder
TTITLE1=Sammy Kershaw - Vidalia
TTITLE2=Kenny Chesney - Me And You
TTITLE3=Patty Loveless - Lonely Too Long
TTITLE4=Ty England - Irresistable You
TTITLE5=Mila Mason - That's Enough Of That
TTITLE6=Lorrie Morgan - I Just Might Be
TTITLE7=Deanna Carter - Strawberry Wine
TTITLE8=Diamond  Rio - It's All In Your Head
TTITLE9=Trace Adkins - There's A Girl In Texas
TTITLE10=Wyonna - My Angel Is Here
TTITLE11=Martina McBride - Swingin' Doors
TTITLE12=Gary Allan - Her Man
TTITLE13=David Ball - Hangin' In And Hangin' On
TTITLE14=Marty Stuart - Thanks To You
TTITLE15=Mandy Barnett - A Single I Love You
TTITLE16=George Jones - Honky Tonk Song
TTITLE17=Billy Ray Cyrus - Trail Of Tears
TTITLE18=Ricochet - Love Is Stronger Than Pride
EXTD=
EXTT0=
EXTT1=
EXTT2=
EXTT3=
EXTT4=
EXTT5=
EXTT6=
EXTT7=
EXTT8=
EXTT9=
EXTT10=
EXTT11=
EXTT12=
EXTT13=
EXTT14=
EXTT15=
EXTT16=
EXTT17=
EXTT18=
PLAYORDER=
